<?xml version="1.0" encoding="utf-8"?>
<!-- Generator: Adobe Illustrator 23.0.1, SVG Export Plug-In . SVG Version: 6.00 Build 0)  -->
<svg version="1.1" id="Layer_1" xmlns="http://www.w3.org/2000/svg" xmlns:xlink="http://www.w3.org/1999/xlink" x="0px" y="0px"
	 viewBox="0 0 163.5 198.6" style="enable-background:new 0 0 163.5 198.6;" xml:space="preserve">
<style type="text/css">
	.st0{fill:#16141B;}
	.st1{fill:#16141B;stroke:#16141B;stroke-width:3;}
</style>
<g>
	<path class="st0" d="M119.2,155.9c-1.3-1.3-2.2-2.3-2.8-2.9c-0.6-0.7-1.2-1.4-1.9-2.3c-0.7-0.9-1.6-2.1-2.7-3.8
		c-1.1-1.7-2.8-4.1-5.1-7.5c-2.7-4-5.2-7.7-7.2-10.9c-2.1-3.2-4.2-6.5-6.4-9.6c-2.2-3.2-4.5-6.4-7-9.6c-2.5-3.2-5.5-6.9-9-10.9
		c-2.9-3.3-6-6.4-9.4-9.3c-3.4-2.9-7-4.7-10.7-5.4c-2.7-0.6-4.8-0.9-6.3-0.9c-1.3,0-3-0.1-5-0.2c0,9.4,0,17.5,0,24.4
		c0,6.9,0.1,12.8,0.2,17.5c0.1,4.6,0.3,8.6,0.4,11.9c0.1,3.3,0.9,6.1,2.4,8.2c1.2,1.9,3.4,3.8,6.7,5.7c3.3,1.9,7.9,3.1,13.8,3.4v2.2
		H0v-2.2c3.6-0.6,7.1-1.4,10.4-2.6c3.3-1.2,5.9-2.9,7.8-5.2c0.7-0.9,1.3-2.2,1.7-3.9c0.4-1.7,0.8-3.7,1-5.8s0.4-4.5,0.5-6.9
		c0.1-2.4,0.2-4.8,0.2-7.1c0-2,0-4.8,0.1-8.2c0.1-3.5,0.1-7.2,0.2-11.4c0.1-4.1,0.1-8.3,0.1-12.6c0-4.5,0-8.7,0-12.5V35.2
		c0-2.6,0-5.2-0.1-7.9c-0.1-2.7-0.2-5.2-0.4-7.6c-0.2-2.4-0.6-4.5-1.1-6.5c-0.5-1.9-1.2-3.4-2.1-4.2c-2.2-2.3-4.6-3.9-7.2-4.6
		C8.5,3.6,5.2,3,1.3,2.4V0.2c1.2,0,4.1,0,8.9,0c4.9,0,10.5,0,16.7-0.1C33,0,39.2,0,45.4,0c6.2,0,11.2,0,15.1,0
		c9.7,0,18.2,0.3,25.7,0.9c7.5,0.6,14.3,2.5,20.5,5.8c6.3,3.3,11.5,7.8,15.4,13.5c3.9,5.7,5.8,12.9,5.8,21.5c0,5.3-1,10.1-2.9,14.4
		c-1.9,4.3-4.5,8-7.8,11.2c-3.2,3.2-7,6-11.4,8.3c-4.3,2.3-8.9,4.3-13.6,5.8v0.6c2.4,1.3,4.8,3.2,7.1,5.6c2.3,2.5,4.5,5.2,6.7,8.2
		c3.7,5.5,7.8,11.4,12.2,17.7c4.4,6.3,8.3,12,11.8,16.9c5.3,7.5,10.5,13,15.6,16.4c5,3.5,11,5.7,17.7,6.7v2.2H119.2z M97.7,21.2
		C94.1,15.6,88.9,11.1,82,7.8C78.5,6.2,74.9,5,71,4.3c-3.8-0.7-7.8-1.1-12-1.1c-3,0-5.5,0.1-7.4,0.2c-1.9,0.1-3.3,0.3-4.3,0.4
		c-0.1,0.9-0.3,1.6-0.4,2.3c-0.1,0.6-0.3,1.5-0.3,2.5c-0.1,1-0.1,2.4-0.2,4.2c-0.1,1.8-0.2,4.4-0.3,7.7c-0.1,5-0.3,10.7-0.3,17.1
		C45.7,44,45.6,50.1,45.6,56c0,5.9,0,11.1,0,15.6c0,4.3,0,7.1,0,8.2c5.9,0,11.4-0.2,16.5-0.8c5.1-0.5,10.1-1.5,14.8-3.1
		c4.6-1.4,8.6-3.4,11.9-5.8c3.3-2.4,6-5.2,8.1-8.3c2.1-3.1,3.6-6.5,4.6-10.1c1-3.6,1.5-7.4,1.5-11.2
		C103.2,33.2,101.3,26.8,97.7,21.2z"/>
</g>
<line class="st1" x1="125.7" y1="197.1" x2="37.8" y2="197.1"/>
</svg>
