<?xml version="1.0" encoding="utf-8"?>
<!-- Generator: Adobe Illustrator 23.0.1, SVG Export Plug-In . SVG Version: 6.00 Build 0)  -->
<svg version="1.1" id="Layer_1" xmlns="http://www.w3.org/2000/svg" xmlns:xlink="http://www.w3.org/1999/xlink" x="0px" y="0px"
	 viewBox="0 0 191 134.6" style="enable-background:new 0 0 191 134.6;" xml:space="preserve">
<style type="text/css">
	.st0{fill:none;stroke:#3DBEB3;stroke-width:2;stroke-miterlimit:10;}
	.st1{fill:none;stroke:#3DBEB3;stroke-width:2;stroke-linecap:round;stroke-linejoin:round;stroke-miterlimit:10;}
	.st2{fill:#3DBEB3;}
</style>
<path class="st0" d="M187.5,111.3l-36.8,21.6c-0.8,0.5-1.7,0.7-2.6,0.7H42.8c-0.9,0-1.8-0.2-2.6-0.7L3.5,111.3
	c-4.5-2.6-2.6-9.5,2.6-9.5h178.8C190.1,101.9,191.9,108.7,187.5,111.3z"/>
<polyline class="st1" points="19,112.7 42.2,126.5 148.3,126.5 "/>
<path class="st1" d="M149.6,59.1L149.6,59.1c-10.4-8.8-33.5-15-60.3-15c-32.5,0-59.6,20.2-65,24.6l2.3,0.8l-2.2,0.9
	C30.1,75,57,95,89.3,95c26.8,0,49.9-6.2,60.3-15l0.1,0l18.1,10.4V69.6V48.7L149.6,59.1z"/>
<path class="st1" d="M52.6,57.1c1.1,2,3,6.1,3.2,11.6c0.2,5.5-1.4,9.7-2.4,11.8"/>
<path class="st1" d="M62.2,57.1c8-2.5,19.1-4.9,32.4-5c20.5,0,36.6,5.7,45.9,9.9"/>
<path class="st1" d="M78.2,1c-8.7,6.6-10.1,10.9-9.5,13.6c1,4.3,7.1,5.4,9.2,12c0.8,2.7,0.6,5.2,0.3,6.9"/>
<path class="st1" d="M100.1,1c-8.7,6.6-10.1,10.9-9.5,13.6c1,4.3,7.1,5.4,9.2,12c0.8,2.7,0.6,5.2,0.3,6.9"/>
<path class="st1" d="M122.1,1c-8.7,6.6-10.1,10.9-9.5,13.6c1,4.3,7.1,5.4,9.2,12c0.8,2.7,0.6,5.2,0.3,6.9"/>
<circle class="st2" cx="45.8" cy="65.1" r="2.2"/>
</svg>
